<?xml version="1.0" standalone="no"?>
<!DOCTYPE svg PUBLIC "-//W3C//DTD SVG 20010904//EN"
 "http://www.w3.org/TR/2001/REC-SVG-20010904/DTD/svg10.dtd">
<svg version="1.0" xmlns="http://www.w3.org/2000/svg"
 width="377.000000pt" height="365.000000pt" viewBox="0 0 377.000000 365.000000"
 preserveAspectRatio="xMidYMid meet">

<g transform="translate(0.000000,365.000000) scale(0.100000,-0.100000)"
fill="#000000" stroke="none">
<path d="M1825 3588 c-83 -92 -162 -219 -488 -778 l-142 -245 -45 -7 c-25 -4
-106 -14 -180 -23 -449 -54 -868 -141 -940 -195 l-24 -18 41 -54 c42 -53 487
-498 750 -750 l143 -135 -30 -54 c-52 -97 -141 -328 -235 -614 -129 -388 -186
-625 -163 -684 8 -22 12 -23 64 -17 119 14 430 147 947 403 191 95 355 173
364 173 9 0 145 -65 302 -144 621 -313 1018 -473 1062 -429 41 41 -31 344
-189 798 -83 239 -141 386 -192 492 l-38 78 166 159 c426 407 762 751 762 780
0 12 -104 55 -182 75 -187 48 -498 102 -778 136 -74 9 -155 19 -180 23 l-44 7
-85 145 c-346 597 -464 787 -548 880 -24 27 -51 50 -58 50 -7 0 -34 -24 -60
-52z m159 -707 c58 -87 269 -436 326 -538 20 -37 29 -43 64 -48 499 -64 725
-113 734 -159 3 -13 -82 -103 -298 -316 l-302 -299 27 -56 c109 -230 263 -725
253 -812 -3 -26 -6 -28 -48 -27 -65 1 -236 72 -568 235 -155 76 -287 139 -294
139 -6 0 -108 -49 -227 -109 -347 -175 -574 -271 -641 -271 -38 0 -44 22 -30
102 30 165 175 598 255 758 l22 45 -208 200 c-238 229 -402 401 -396 418 2 7
33 22 69 34 110 37 300 71 664 119 l42 5 110 187 c142 244 275 452 312 492 30
32 31 32 50 15 11 -10 49 -61 84 -114z"/>
<path d="M1850 2448 c-17 -23 -70 -108 -117 -188 -47 -80 -91 -150 -97 -157
-6 -6 -47 -17 -91 -23 -202 -29 -355 -63 -355 -80 0 -3 78 -83 174 -178 l174
-172 -19 -37 c-49 -100 -146 -404 -149 -466 0 -9 74 1 100 13 8 4 26 12 40 18
14 6 105 49 203 96 l177 86 118 -59 c64 -32 140 -69 167 -81 28 -12 74 -33
103 -46 51 -23 132 -42 132 -31 0 54 -107 384 -155 480 l-14 28 174 171 c96
95 175 175 175 178 0 18 -150 51 -362 81 -63 9 -89 17 -93 28 -9 24 -143 247
-190 315 -22 33 -45 61 -52 63 -7 3 -26 -15 -43 -39z" fill="#1468be"/>
</g>
</svg>
